<?xml version="1.0" encoding="UTF-8" standalone="no"?>
<svg
   height="800"
   width="1200"
   viewBox="-33.4974 -55.829 290.3108 334.974"
   version="1.1"
   id="svg4"
   sodipodi:docname="spotify.svg"
   inkscape:version="1.1.1 (3bf5ae0d25, 2021-09-20)"
   xmlns:inkscape="http://www.inkscape.org/namespaces/inkscape"
   xmlns:sodipodi="http://sodipodi.sourceforge.net/DTD/sodipodi-0.dtd"
   xmlns="http://www.w3.org/2000/svg"
   xmlns:svg="http://www.w3.org/2000/svg">
  <defs
     id="defs8" />
  <sodipodi:namedview
     id="namedview6"
     pagecolor="#ffffff"
     bordercolor="#666666"
     borderopacity="1.0"
     inkscape:pageshadow="2"
     inkscape:pageopacity="0.0"
     inkscape:pagecheckerboard="0"
     showgrid="false"
     inkscape:zoom="0.90875"
     inkscape:cx="599.7249"
     inkscape:cy="376.89133"
     inkscape:window-width="1916"
     inkscape:window-height="1050"
     inkscape:window-x="0"
     inkscape:window-y="26"
     inkscape:window-maximized="1"
     inkscape:current-layer="svg4" />
  <path
     d="M 210.0273,92.786596 C 156.42304,60.951993 68.004009,58.025444 16.83184,73.556262 8.6121822,76.049414 -0.07661657,71.411615 -2.5653006,63.193447 -5.055474,54.970811 -0.42214303,46.28648 7.8004929,43.78886 66.544458,25.958504 164.19291,29.401854 225.90364,66.033615 c 7.39308,4.389079 9.81474,13.934248 5.4346,21.312429 -4.38462,7.391585 -13.93872,9.829632 -21.31243,5.440552 m -1.75444,47.149464 c -3.76058,6.10331 -11.74046,8.01711 -17.83483,4.26994 C 145.74895,116.73664 77.601304,108.77762 24.7298,124.82673 17.874376,126.89691 10.631725,123.03356 8.54963,116.18857 a 12.982561,12.982561 0 0 1 8.645608,-16.16826 c 60.39713,-18.329283 135.482112,-9.452828 186.810662,22.09135 6.09437,3.75314 8.01264,11.73599 4.26547,17.8244 m -20.34883,45.28184 a 10.356858,10.356858 0 0 1 -14.25148,3.44931 C 134.62062,164.80056 85.467989,159.41065 27.581882,172.63299 a 10.358347,10.358347 0 0 1 -12.407676,-7.79221 10.3509,10.3509 0 0 1 7.793707,-12.41215 c 63.34602,-14.47934 117.683037,-8.24795 161.515747,18.5363 a 10.365794,10.365794 0 0 1 3.44037,14.25297 M 111.65502,-54.63852 c -91.838547,0 -166.29354,74.452015 -166.29354,166.29354 0,91.85046 74.454993,166.2995 166.29503,166.2995 91.84451,0 166.29801,-74.44904 166.29801,-166.2995 0,-91.840036 -74.45201,-166.29354 -166.29801,-166.29354"
     fill="#222222"
     id="path2"
     style="stroke-width:1.48934" />
</svg>
